<mxfile host="app.diagrams.net" modified="2024-03-31T22:49:07.290Z" agent="Mozilla/5.0 (Windows NT 10.0; Win64; x64) AppleWebKit/537.36 (KHTML, like Gecko) Chrome/123.0.0.0 Safari/537.36" etag="dlz2tc6B5Rg0FbFvUGYg" version="24.2.1" type="google">
  <diagram name="Page-1" id="YTog3u71qegdg-yHUOyr">
    <mxGraphModel grid="1" page="1" gridSize="10" guides="1" tooltips="1" connect="1" arrows="1" fold="1" pageScale="1" pageWidth="850" pageHeight="1100" math="0" shadow="0">
      <root>
        <mxCell id="0" />
        <mxCell id="1" parent="0" />
        <mxCell id="jShD693VS3eVTbc4iG5--20" value="" style="whiteSpace=wrap;html=1;aspect=fixed;" vertex="1" parent="1">
          <mxGeometry x="200" y="100" width="420" height="420" as="geometry" />
        </mxCell>
        <mxCell id="jShD693VS3eVTbc4iG5--1" value="Cliente" style="shape=umlActor;verticalLabelPosition=bottom;verticalAlign=top;html=1;outlineConnect=0;" vertex="1" parent="1">
          <mxGeometry x="120" y="200" width="30" height="60" as="geometry" />
        </mxCell>
        <mxCell id="jShD693VS3eVTbc4iG5--6" value="Atendente" style="shape=umlActor;verticalLabelPosition=bottom;verticalAlign=top;html=1;outlineConnect=0;" vertex="1" parent="1">
          <mxGeometry x="120" y="310" width="30" height="60" as="geometry" />
        </mxCell>
        <mxCell id="jShD693VS3eVTbc4iG5--7" value="Manter Pedido" style="ellipse;whiteSpace=wrap;html=1;" vertex="1" parent="1">
          <mxGeometry x="250" y="230" width="110" height="70" as="geometry" />
        </mxCell>
        <mxCell id="jShD693VS3eVTbc4iG5--8" value="" style="endArrow=classic;html=1;rounded=0;entryX=-0.013;entryY=0.6;entryDx=0;entryDy=0;entryPerimeter=0;" edge="1" parent="1" source="jShD693VS3eVTbc4iG5--6" target="jShD693VS3eVTbc4iG5--7">
          <mxGeometry width="50" height="50" relative="1" as="geometry">
            <mxPoint x="210" y="300" as="sourcePoint" />
            <mxPoint x="230" y="280" as="targetPoint" />
          </mxGeometry>
        </mxCell>
        <mxCell id="jShD693VS3eVTbc4iG5--10" value="Manter&amp;nbsp; Produtos" style="ellipse;whiteSpace=wrap;html=1;" vertex="1" parent="1">
          <mxGeometry x="250" y="320" width="110" height="70" as="geometry" />
        </mxCell>
        <mxCell id="jShD693VS3eVTbc4iG5--11" value="Manter Pratos" style="ellipse;whiteSpace=wrap;html=1;" vertex="1" parent="1">
          <mxGeometry x="250" y="410" width="110" height="70" as="geometry" />
        </mxCell>
        <mxCell id="jShD693VS3eVTbc4iG5--12" value="" style="endArrow=classic;html=1;rounded=0;entryX=-0.02;entryY=0.442;entryDx=0;entryDy=0;entryPerimeter=0;" edge="1" parent="1" source="jShD693VS3eVTbc4iG5--6" target="jShD693VS3eVTbc4iG5--10">
          <mxGeometry width="50" height="50" relative="1" as="geometry">
            <mxPoint x="290" y="310" as="sourcePoint" />
            <mxPoint x="340" y="260" as="targetPoint" />
          </mxGeometry>
        </mxCell>
        <mxCell id="jShD693VS3eVTbc4iG5--13" value="" style="endArrow=classic;html=1;rounded=0;entryX=-0.026;entryY=0.402;entryDx=0;entryDy=0;entryPerimeter=0;" edge="1" parent="1" source="jShD693VS3eVTbc4iG5--6" target="jShD693VS3eVTbc4iG5--11">
          <mxGeometry width="50" height="50" relative="1" as="geometry">
            <mxPoint x="170" y="360" as="sourcePoint" />
            <mxPoint x="340" y="260" as="targetPoint" />
          </mxGeometry>
        </mxCell>
        <mxCell id="jShD693VS3eVTbc4iG5--14" value="Manter o Estoque" style="ellipse;whiteSpace=wrap;html=1;" vertex="1" parent="1">
          <mxGeometry x="490" y="180" width="110" height="70" as="geometry" />
        </mxCell>
        <mxCell id="jShD693VS3eVTbc4iG5--15" value="" style="endArrow=none;html=1;rounded=0;entryX=0.005;entryY=0.393;entryDx=0;entryDy=0;entryPerimeter=0;" edge="1" parent="1" source="jShD693VS3eVTbc4iG5--1" target="jShD693VS3eVTbc4iG5--7">
          <mxGeometry width="50" height="50" relative="1" as="geometry">
            <mxPoint x="190" y="240" as="sourcePoint" />
            <mxPoint x="240" y="190" as="targetPoint" />
          </mxGeometry>
        </mxCell>
        <mxCell id="jShD693VS3eVTbc4iG5--16" value="Atendente" style="shape=umlActor;verticalLabelPosition=bottom;verticalAlign=top;html=1;outlineConnect=0;" vertex="1" parent="1">
          <mxGeometry x="770" y="270" width="30" height="60" as="geometry" />
        </mxCell>
        <mxCell id="jShD693VS3eVTbc4iG5--17" value="" style="endArrow=classic;html=1;rounded=0;entryX=1.009;entryY=0.614;entryDx=0;entryDy=0;entryPerimeter=0;exitX=0.5;exitY=0.5;exitDx=0;exitDy=0;exitPerimeter=0;" edge="1" parent="1" source="jShD693VS3eVTbc4iG5--16" target="jShD693VS3eVTbc4iG5--14">
          <mxGeometry width="50" height="50" relative="1" as="geometry">
            <mxPoint x="740" y="250" as="sourcePoint" />
            <mxPoint x="500" y="240" as="targetPoint" />
          </mxGeometry>
        </mxCell>
        <mxCell id="jShD693VS3eVTbc4iG5--19" value="&amp;lt;&amp;lt;Include&amp;gt;&amp;gt;" style="endArrow=open;endSize=12;dashed=1;html=1;rounded=0;entryX=1;entryY=0.5;entryDx=0;entryDy=0;exitX=0;exitY=0.5;exitDx=0;exitDy=0;" edge="1" parent="1" source="jShD693VS3eVTbc4iG5--14" target="jShD693VS3eVTbc4iG5--7">
          <mxGeometry width="160" relative="1" as="geometry">
            <mxPoint x="400" y="260" as="sourcePoint" />
            <mxPoint x="560" y="260" as="targetPoint" />
          </mxGeometry>
        </mxCell>
        <mxCell id="jShD693VS3eVTbc4iG5--22" value="&lt;div style=&quot;font-size: 16px;&quot;&gt;&lt;font style=&quot;font-size: 16px;&quot;&gt;&lt;br&gt;&lt;/font&gt;&lt;/div&gt;&lt;div style=&quot;font-size: 16px;&quot;&gt;&lt;font style=&quot;font-size: 16px;&quot;&gt;Sistema Restaurante&lt;/font&gt;&lt;/div&gt;" style="text;html=1;align=center;verticalAlign=middle;whiteSpace=wrap;rounded=0;" vertex="1" parent="1">
          <mxGeometry x="310" y="100" width="200" height="30" as="geometry" />
        </mxCell>
        <mxCell id="jShD693VS3eVTbc4iG5--25" value="" style="endArrow=classic;html=1;rounded=0;exitX=0.5;exitY=0.5;exitDx=0;exitDy=0;exitPerimeter=0;entryX=0.936;entryY=0.3;entryDx=0;entryDy=0;entryPerimeter=0;" edge="1" parent="1" source="jShD693VS3eVTbc4iG5--16" target="jShD693VS3eVTbc4iG5--29">
          <mxGeometry width="50" height="50" relative="1" as="geometry">
            <mxPoint x="450" y="370" as="sourcePoint" />
            <mxPoint x="542.96" y="292.99" as="targetPoint" />
          </mxGeometry>
        </mxCell>
        <mxCell id="jShD693VS3eVTbc4iG5--28" value="&amp;lt;&amp;lt;Include&amp;gt;&amp;gt;" style="endArrow=open;endSize=12;dashed=1;html=1;rounded=0;exitX=0;exitY=0;exitDx=0;exitDy=0;entryX=0.955;entryY=0.757;entryDx=0;entryDy=0;entryPerimeter=0;" edge="1" parent="1" source="jShD693VS3eVTbc4iG5--29" target="jShD693VS3eVTbc4iG5--7">
          <mxGeometry width="160" relative="1" as="geometry">
            <mxPoint x="490" y="255" as="sourcePoint" />
            <mxPoint x="380" y="255" as="targetPoint" />
          </mxGeometry>
        </mxCell>
        <mxCell id="jShD693VS3eVTbc4iG5--29" value="Emitir a conta" style="ellipse;whiteSpace=wrap;html=1;" vertex="1" parent="1">
          <mxGeometry x="450" y="340" width="110" height="70" as="geometry" />
        </mxCell>
        <mxCell id="li2Zr2qOc-eNw847j6Ur-2" value="Consultar Menu" style="ellipse;whiteSpace=wrap;html=1;" vertex="1" parent="1">
          <mxGeometry x="250" y="140" width="110" height="70" as="geometry" />
        </mxCell>
        <mxCell id="li2Zr2qOc-eNw847j6Ur-4" value="" style="endArrow=classic;html=1;rounded=0;" edge="1" parent="1" source="jShD693VS3eVTbc4iG5--1">
          <mxGeometry width="50" height="50" relative="1" as="geometry">
            <mxPoint x="200" y="230" as="sourcePoint" />
            <mxPoint x="250" y="180" as="targetPoint" />
          </mxGeometry>
        </mxCell>
      </root>
    </mxGraphModel>
  </diagram>
</mxfile>
